PathFileType	4	(X/Y/Z)	D:\TRACE\v60_Jaco2_6-2-23\JustArmDRS_Motion2_4-platform.trc
DataRate	CameraRate	NumFrames	NumMarkers	Units	OrigDataRate	OrigDataStartFrame	OrigNumFrames
100.00	100.00	      23	5	mm	100.00	6040	      6902
Frame#	Time	Left_Front			Right_Front			Left_Aft			Right_Aft			Post			
		X1	Y1	Z1	X2	Y2	Z2	X3	Y3	Z3	X4	Y4	Z4	X5	Y5	Z5	

6040	60.390	-848.00446	-47.08437	-649.66681	721.77307	-45.07681	-654.97107	-756.14880	45.12800	482.00656	686.42401	46.04135	491.74484	-62.26301	1221.66272	-1082.78162	
6041	60.400	-847.76251	-47.37791	-649.75311	722.29999	-45.96016	-655.13440	-755.81464	45.57885	481.83972	686.85907	46.38899	491.50089	-61.66846	1220.55957	-1084.50049	
6042	60.410	-847.29071	-47.98996	-649.93689	722.90125	-46.55946	-655.20856	-755.35895	46.15075	481.67038	687.18555	46.75114	491.28058	-61.46502	1219.48059	-1085.80200	
6043	60.420	-846.75208	-48.71220	-650.03632	723.37347	-47.18176	-655.36566	-754.86902	46.47198	481.48434	687.65833	47.29243	491.20959	-60.68579	1218.48169	-1087.58142	
6044	60.430	-846.15894	-49.26245	-649.93158	723.87787	-47.58856	-655.47943	-754.54181	46.77629	481.25525	688.08826	47.72065	490.97678	-60.39259	1217.75989	-1089.38879	
6045	60.440	-845.59821	-49.83761	-649.88019	724.22333	-47.97903	-655.49176	-753.83002	47.26604	481.17203	688.52399	48.00725	490.89700	-59.63961	1216.85327	-1090.78442	
6046	60.450	-845.15381	-50.20917	-650.04645	724.72400	-48.55897	-655.49689	-753.49219	47.48362	481.01016	689.09680	48.27547	490.74600	-59.54733	1216.03479	-1092.30701	
6047	60.460	-844.62427	-50.70618	-650.33228	725.35748	-48.88466	-655.42670	-753.04425	47.69711	480.82605	689.62085	48.51525	490.62952	-58.86865	1215.37891	-1093.58130	
6048	60.470	-844.13934	-50.97170	-650.54578	725.72681	-49.13148	-655.54962	-752.23541	47.95057	480.71918	690.10260	48.86778	490.54471	-58.00142	1214.53906	-1095.26270	
6049	60.480	-843.75305	-51.25220	-650.40448	726.43481	-49.63714	-655.69812	-751.63800	48.15841	480.63068	690.89014	49.14178	490.44510	-57.40251	1213.94507	-1096.56311	
6050	60.490	-842.87115	-51.66230	-650.44806	727.15076	-50.10043	-655.81500	-751.04211	48.29650	480.51703	691.41003	49.39474	490.22723	-57.49828	1213.37708	-1097.87842	
6051	60.500	-842.23157	-52.00698	-650.42230	727.66370	-50.31863	-655.85596	-750.55975	48.53154	480.39099	692.03687	49.61837	490.10382	-56.66829	1212.78455	-1099.12793	
6052	60.510	-841.72589	-52.14754	-650.49939	728.16602	-50.51958	-655.68256	-750.07007	48.70516	480.36761	692.49493	49.74177	490.01245	-55.46579	1212.39575	-1100.80481	
6053	60.520	-841.18597	-52.48523	-650.53558	728.68286	-50.81599	-655.69916	-749.39307	48.88249	480.24216	693.02722	49.90466	490.00046	-55.43446	1211.96252	-1101.85229	
6054	60.530	-840.72034	-52.79863	-650.64661	729.73553	-50.94190	-655.59247	-748.65997	49.02996	480.26270	693.76306	50.05078	490.03528	-54.53168	1211.47461	-1103.00256	
6055	60.540	-839.94629	-52.94263	-650.48987	730.45551	-51.09517	-655.84601	-748.04358	49.08547	480.28577	694.54370	50.27894	490.00522	-53.38738	1211.11902	-1104.37732	
6056	60.550	-839.10498	-53.12060	-650.43903	730.93695	-51.12405	-655.97003	-747.30042	49.22982	480.24069	695.30463	50.26483	489.84116	-53.37657	1211.05725	-1105.45374	
6057	60.560	-838.24188	-53.18162	-650.50867	731.55609	-51.28478	-655.93030	-746.49506	49.23225	480.14648	695.85999	50.26770	489.77087	-52.53041	1210.65808	-1106.80249	
6058	60.570	-837.71649	-53.26138	-650.48468	732.32263	-51.41773	-655.83453	-745.89709	49.31781	480.08365	696.44226	50.25371	489.79272	-51.28676	1210.36121	-1108.06616	
6059	60.580	-837.11475	-53.12753	-650.54956	733.16699	-51.24548	-655.78339	-745.28033	49.36455	480.08847	697.15564	50.26470	489.82544	-50.70769	1210.33325	-1109.04004	
6060	60.590	-836.34222	-53.19483	-650.65344	734.03870	-51.06653	-655.84961	-744.41138	49.38180	480.12946	697.92303	50.30696	489.80484	-50.04778	1210.37573	-1110.17505	
6061	60.600	-835.56024	-53.13525	-650.54230	734.67029	-51.05516	-655.89948	-743.72491	49.31820	480.06174	698.59113	50.31013	489.91113	-49.17291	1210.41455	-1111.35901	
6062	60.610	-834.47333	-52.94816	-650.46759	735.41693	-51.10472	-656.00360	-742.94220	49.20560	480.11218	699.63171	50.21536	489.81613	-48.05256	1210.24512	-1112.44385	
